# xmcd
#
# Track frame offsets: 
#        150
#        13423
#        26131
#        40088
#        54996
#        67206
#        79320
#        92743
#        105160
#        119254
#        131745
#        145026
#        155378
#        168579
#        182678
#        194611
#        204948
#        215693
#        228323
#        238559
#        249087
#        268848
#        281678
#        292063
#        305645
#        319964
#        331004
#        343282
#
# Disc length: 4695 seconds
#
# Revision: 0
# Processed by: cddbd v1.5.2PL0 Copyright (c) Steve Scherf et al.
# Submitted via: ExactAudioCopy v1.0b3
#
DISCID=a812551c
DTITLE=Muddy Waters - Muddy Waters - Chess Singles Collection [CD3]
DYEAR=1900
DGENRE=Blues
TTITLE0=I Won't Go On
TTITLE1=She's Got It
TTITLE2=Close To You
TTITLE3=She's Nineteen Years Old
TTITLE4=Walking Thru The Park
TTITLE5=Mean Mistreater
TTITLE6=Clouds In My Heart
TTITLE7=Ooh Wee
TTITLE8=Take The Bitter With The Sweet
TTITLE9=She's Into Something
TTITLE10=Recipe For Love
TTITLE11=Tell Me Baby
TTITLE12=I Feel So Good
TTITLE13=When I Get To Thinking
TTITLE14=Read Way Back
TTITLE15=I'm Your Doctor
TTITLE16=Look What You've Done
TTITLE17=Love Affair
TTITLE18=Tiger In Your Tank
TTITLE19=Meanest Woman
TTITLE20=Got My Mojo Working, Pt. 1 (Live)
TTITLE21=Woman Wanted
TTITLE22=Messin' With The Man
TTITLE23=Lonesome Bedroom Blues
TTITLE24=Going Home
TTITLE25=Tough Times
TTITLE26=You Shook Me
TTITLE27=Muddy Waters Twist
EXTD=
EXTT0=
EXTT1=
EXTT2=
EXTT3=
EXTT4=
EXTT5=
EXTT6=
EXTT7=
EXTT8=
EXTT9=
EXTT10=
EXTT11=
EXTT12=
EXTT13=
EXTT14=
EXTT15=
EXTT16=
EXTT17=
EXTT18=
EXTT19=
EXTT20=
EXTT21=
EXTT22=
EXTT23=
EXTT24=
EXTT25=
EXTT26=
EXTT27=
PLAYORDER=
